<?xml version="1.0" encoding="UTF-8" standalone="no"?>
<!DOCTYPE svg PUBLIC "-//W3C//DTD SVG 1.1//EN" "http://www.w3.org/Graphics/SVG/1.1/DTD/svg11.dtd">
<svg width="100%" height="100%" viewBox="0 0 1366 1366" version="1.1" xmlns="http://www.w3.org/2000/svg" xmlns:xlink="http://www.w3.org/1999/xlink" xml:space="preserve" xmlns:serif="http://www.serif.com/" style="fill-rule:evenodd;clip-rule:evenodd;stroke-linejoin:round;stroke-miterlimit:2;">
    <g transform="matrix(2.66667,0,0,2.66667,0,0)">
        <path d="M476.59,227.05L476.43,226.98L49.35,49.84C42.061,46.789 33.705,47.602 27.14,52C20.203,56.545 16.009,64.297 16,72.59L16,185.88C16.004,197.359 24.243,207.307 35.52,209.45L268.45,252.52C270.331,252.877 271.705,254.536 271.705,256.45C271.705,258.364 270.331,260.023 268.45,260.38L35.53,303.45C24.256,305.587 16.014,315.525 16,327L16,440.31C15.995,448.229 19.98,455.639 26.59,460C30.508,462.603 35.107,463.994 39.81,464C43.08,463.997 46.317,463.341 49.33,462.07L476.4,285.94L476.59,285.85C488.318,280.81 495.955,269.215 495.955,256.45C495.955,243.685 488.318,232.09 476.59,227.05Z" style="fill:white;fill-rule:nonzero;"/>
    </g>
</svg>
